<svg xmlns="http://www.w3.org/2000/svg" width="359" height="294" viewBox="0 0 359 294">
    <g fill="none">
        <ellipse cx="248.221" cy="62.067" fill="#EC615B" rx="4.556" ry="4.551"/>
        <ellipse cx="253.056" cy="51.876" fill="#EC615B" rx="2.124" ry="2.122"/>
        <ellipse cx="113.768" cy="24.207" fill="#EC615B" rx="2.18" ry="2.178"/>
        <ellipse cx="256.439" cy="277.583" fill="#EC615B" rx="3.69" ry="3.685"/>
        <ellipse cx="88.526" cy="292.185" fill="#73539C" rx="1.705" ry="1.703"/>
        <ellipse cx="109.826" cy="166.321" fill="#73539C" rx="1.761" ry="1.759"/>
        <ellipse cx="113.293" cy="175.339" fill="#73539C" rx="1.705" ry="1.703"/>
        <ellipse cx="111.252" cy="221.324" fill="#73539C" rx="3.187" ry="3.183"/>
        <ellipse cx="245.677" cy="41.601" fill="#73539C" rx="2.013" ry="2.01"/>
        <ellipse cx="169.114" cy="45.37" fill="#73539C" rx="1.761" ry="1.759"/>
        <ellipse cx="12.104" cy="183.38" fill="#73539C" rx="1.342" ry="1.34"/>
        <ellipse cx="251.771" cy="287.132" fill="#73539C" rx="3.354" ry="3.35"/>
        <ellipse cx="287.69" cy="1.871" fill="#73539C" rx="1.761" ry="1.759"/>
        <path fill="#73539C" d="M116.591 80.94c-.28-1.73-.531-5.192 2.236-4.913 1.007.111 1.566 1.005 2.684.614 2.096-.726 1.62-3.434 2.487-4.998 1.426-2.513 4.193 1.145 6.318-.056.699-.39.866-1.116.838-1.87-.056-2.82 2.432-2.625 4.473-2.066.53.14.755-.67.223-.81-2.068-.558-5.506-.754-5.59 2.234-.028.726.363 1.451-.699 1.898-.335.14-.894-.028-1.202-.111-.727-.224-1.37-.726-2.124-.922-.979-.279-1.929-.084-2.6.698-.838 1.005-.81 2.373-1.202 3.546-.42 1.256-1.23 1.982-2.6 1.368-.559-.251-1.062-.475-1.705-.39-2.879.39-2.739 3.88-2.376 6.002.112.53.923.307.839-.223zM119.89 82.56c.223-1.73 1.62-2.485 3.242-2.485.866 0 1.733.14 2.572-.167 1.9-.726 1.537-2.792 1.984-4.412.839-3.07 4.724-1.172 6.877-1.675 1.453-.363 2.683-1.815 2.068-3.35-.196-.503-1.006-.28-.81.223.95 2.317-2.293 2.457-3.662 2.29-1.007-.112-1.985-.28-2.991-.028-1.594.418-2.209 1.591-2.432 3.099-.196 1.396-.168 2.931-1.985 3.155-.978.111-1.956-.168-2.935.056-1.565.362-2.572 1.675-2.767 3.238-.084.587.755.587.838.056zM177.64 13.988c-.979 1.229-2.013 2.736-1.538 4.384.392 1.34 1.454 1.842 2.74 1.758.755-.055 1.537-.25 2.152.42.475.502.168 1.563.028 2.121-.224.866-.643 1.703-.559 2.625.14 1.256 1.146 2.233 2.432 1.954.531-.112.307-.921-.224-.81-2.432.559-.754-3.49-.643-4.467.084-.81-.055-1.703-.67-2.29-.615-.586-1.37-.53-2.153-.446-1.23.14-2.376-.251-2.432-1.731-.028-1.117.755-2.122 1.426-2.96.391-.363-.224-.977-.56-.558zM184.237 13.57c-1.314.558-2.153 1.926-1.817 3.35.167.642.559 1.256 1.118 1.647.67.503 1.453.39 2.124.81 1.258.753.252 2.233.308 3.406.028.586.167 1.117.67 1.48.755.586 1.873.39 2.18-.559.169-.502-.642-.726-.81-.223-1.062-.14-1.425-.614-1.118-1.424l.168-.838c.056-.279.084-.558.084-.837 0-.587-.168-1.2-.615-1.62-.671-.614-1.705-.363-2.432-.865-1.482-1.033-.95-2.988.559-3.63.503-.195.056-.893-.42-.698z"/>
        <path fill="#EC615B" d="M1.454 178.606c-.643-1.005-.643-2.234 0-3.267.642-1.005 1.537-1.033 2.571-1.424 1.426-.586 1.454-2.066 1.37-3.406-.028-.475-.056-.977.084-1.452.363-1.117 1.314-.81 2.18-.67.503.084.978 0 1.398-.28.53-.362.866-1.004 1.034-1.619.14-.502.168-1.033.28-1.535.055-.363.167-.698.335-1.005.447-.698.978-.754 1.621-.14.14.53.95.307.81-.223-.502-1.815-2.739-1.006-3.298.279-.251.586-.28 1.228-.419 1.843-.084.363-.14.753-.335 1.088-.42.754-1.202.615-1.93.53-.866-.083-1.536-.167-2.096.643-.642.921-.475 2.01-.475 3.071.028 1.285-.251 1.787-1.51 2.206-.502.168-.922.251-1.369.586-1.621 1.145-2.04 3.518-.978 5.166.28.474 1.006.055.727-.391zM4.948 180.532c-1.174-.167-.727-1.452-.196-1.954.391-.363.922-.587 1.426-.838.615-.307 1.23-.67 1.677-1.2 1.202-1.508-.531-3.518 1.146-4.719 1.677-1.173 6.177-1.703 4.864-4.83-.196-.503-.923-.056-.727.419.95 2.261-3.662 2.931-4.836 3.88-.42.336-.783.782-.95 1.313-.336 1.172.642 2.373-.224 3.49-1.006 1.228-3.159 1.228-3.662 2.96-.307.977.224 2.15 1.286 2.317.503.056.727-.754.196-.838zM311.366 115.646c-.364-.643-.308-1.34.084-1.955.615-.893 1.341-.698 2.292-.614.643.056 1.23.195 1.845-.168 1.09-.67.922-2.066 1.118-3.127.447-2.485 2.6-.223 4.053-1.005.531-.279.727-.81.839-1.368.195-1.089.251-4.328 2.348-3.015.447.279.894-.447.419-.726-1.873-1.145-3.382.754-3.55 2.513-.112 1.005 0 1.982-1.342 1.842-.475-.055-.95-.307-1.425-.363-.755-.083-1.426.14-1.845.81-.476.782-.308 1.76-.503 2.597-.42 1.898-2.041.837-3.355 1.06-1.76.308-2.571 2.43-1.733 3.91.28.502 1.006.083.755-.391zM315.53 117.405c-.474-1.285 1.007-2.709 2.293-2.039.168.084.391.084.503-.055.643-.698.81-1.508 1.09-2.402.503-1.619 1.705-1.842 3.159-2.29 1.426-.446 3.019-1.618 2.432-3.294-.196-.502-1.006-.279-.81.224.81 2.205-3.16 2.373-4.333 3.183-1.426 1.005-1.007 2.82-2.097 3.992.168-.028.335-.056.503-.056-1.873-.977-4.249.95-3.522 2.988.168.474.978.279.783-.251zM202.63 124.72c.056 0 .67 1.507.922 1.703.391.307.867.335 1.342.251.838-.14 1.37-.754 2.096-1.145 1.566-.893 1.566.643 2.18 1.508.7 1.033 1.454.53 2.265.028.53-.335 1.034-.558 1.51-.084.25.251.418.67.614.977.308.447.643.81 1.146 1.033.475.224.923-.502.42-.725-1.147-.503-1.286-2.402-2.656-2.597-.643-.084-.922.28-1.426.558-.615.363-.978.615-1.37-.083-.167-.28-.195-.67-.39-.95-.895-1.48-2.293-.67-3.41.056-.197.14-.392.28-.616.391-.475-.14-.978-.28-1.453-.419-.196-.195-.196-.67-.364-.921-.28-.391-.559-.503-1.006-.419-.56.112-.336.921.196.838zM209.199 122.04c.838-1.313 2.767 1.423 3.55 1.758.475.196.922.196 1.425.056.224-.056.42-.167.615-.251.755-.307 1.398-.112 2.013.419.894.753 1.146 1.759 2.432 2.038.754.167 1.453-.056 1.789-.782.223-.475-.504-.921-.727-.419-.783 1.675-2.935-1.62-3.494-1.982-1.035-.67-1.678-.112-2.712.112-1.649.335-2.18-1.508-3.55-1.955-.81-.279-1.593-.14-2.04.614-.336.447.391.866.699.391z"/>
        <g fill="#E8E8E8">
            <path d="M310.863 155.767h44.556c.532 0 .532-.838 0-.838h-44.556c-.531 0-.531.838 0 .838z" transform="translate(2.795 15.077)"/>
            <path d="M323.022 155.572v12.954c0 .531.839.531.839 0v-12.954c0-.531-.839-.531-.839 0zM343.763 155.153V137.06c0-.53-.838-.53-.838 0v18.093c0 .558.838.558.838 0z" transform="translate(2.795 15.077)"/>
            <path d="M333.896 137.395h16.855c.531 0 .531-.837 0-.837h-16.855c-.531 0-.531.837 0 .837zM322.854 36.855V52.49c0 .53.839.53.839 0V36.855c0-.53-.839-.53-.839 0z" transform="translate(2.795 15.077)"/>
            <path d="M309.8 53.69h30.245c.532 0 .532-.837 0-.837h-30.244c-.56 0-.56.838 0 .838z" transform="translate(2.795 15.077)"/>
            <path d="M339.766 53.579v10.386c0 .53.838.53.838 0V53.58c0-.53-.838-.53-.838 0zM59.036 20.577h29.63c.531 0 .531-.837 0-.837h-29.63c-.53 0-.559.837 0 .837z" transform="translate(2.795 15.077)"/>
            <path d="M87.436 20.493v8.041c0 .531.839.531.839 0v-8.04c0-.559-.839-.559-.839 0zM78.463 19.823V6.953c0-.531-.838-.531-.838 0v12.87c0 .559.838.559.838 0zM.42 106.627h20.46c.532 0 .532-.837 0-.837H.42c-.532 0-.532.837 0 .837z" transform="translate(2.795 15.077)"/>
            <path d="M12.914 98.223v7.539c0 .53.839.53.839 0v-7.539c0-.53-.839-.53-.839 0z" transform="translate(2.795 15.077)"/>
            <path d="M7.994 98.642h10.902c.531 0 .531-.837 0-.837H7.994c-.559 0-.559.837 0 .837zM131.098 274.68h27.338c.531 0 .531-.838 0-.838h-27.338c-.559 0-.559.837 0 .837z" transform="translate(2.795 15.077)"/>
            <path d="M147.926 273.842v-5.892c0-.53-.839-.53-.839 0v5.892c0 .558.839.558.839 0z" transform="translate(2.795 15.077)"/>
            <path d="M145.382 267.978h11.35c.53 0 .53-.837 0-.837h-11.35c-.53 0-.53.837 0 .837zM1.062 259.993H28.4c.531 0 .531-.837 0-.837H1.062c-.53 0-.53.837 0 .837z" transform="translate(2.795 15.077)"/>
            <path d="M13.697 249.048v9.66c0 .531.838.531.838 0v-9.66c0-.53-.838-.53-.838 0z" transform="translate(2.795 15.077)"/>
            <path d="M13.697 247.792H2.767c-.53 0-.53.838 0 .838h10.93c.531 0 .531-.838 0-.838zM304.937 235.423c-.923-.921-.7-2.708.726-3.015.755-.168 1.482.307 2.209.39.559.085 1.146.029 1.51-.474.558-.726.111-1.563.083-2.373-.056-2.54 2.963-2.373 4.473-1.48.335.196.698-.14.614-.474-.726-3.49 3.271-5.892 6.01-3.574.42.335 1.007-.251.587-.587-3.382-2.847-8.33.056-7.407 4.412.196-.168.42-.307.615-.475-1.286-.782-2.935-1.172-4.305-.307-.503.307-.95.782-1.174 1.34-.168.391-.252.754-.224 1.173.028.754.28.698-.28 1.424-.614.81-.67.447-1.536.251-.308-.084-.587-.14-.923-.112-.699.028-1.342.363-1.789.866-.978 1.089-.727 2.624.252 3.602.363.39.95-.196.559-.587zM310.388 236.261c-.308-2.54 3.857-2.569 5.031-4.328.307-.446.42-.949.615-1.424.363-.865 1.006-1.424 1.957-1.675 1.537-.39 3.13.307 4.528.894.503.195.727-.615.224-.81-2.572-1.061-6.038-1.87-7.464 1.256-.503 1.117-.67 1.731-1.845 2.318-.698.335-1.425.53-2.096.921-1.062.614-1.9 1.564-1.761 2.848.056.53.894.53.81 0zM190.163 155.069c.559 1.396 1.118 2.82 1.677 4.216.056-.168.14-.307.196-.475-.308.196-.615.391-.923.615-.475-1.117-.28-1.397.615-.894.531.335.783 1.061.895 1.647.251 1.34-.028 2.737-.476 4.02-.111.336.224.56.503.503 1.678-.335 2.348 1.676 2.013 2.932-.252.921-.755 1.731-1.258 2.54-.28.448.447.866.727.42.894-1.396 1.929-3.127 1.314-4.859-.475-1.284-1.65-2.094-3.02-1.842l.504.502c.559-1.62.922-3.657.224-5.305-.476-1.088-1.566-1.926-2.796-1.563-.95.28-1.425 1.228-.978 2.15.755 1.535 2.068.502 3.047-.14.14-.084.251-.307.196-.474-.56-1.396-1.119-2.82-1.678-4.216-.167-.475-.978-.28-.782.223zM24.85 22.978c-.531-1.34 1.258-1.703 2.096-1.228.643.363 1.063 1.005 1.454 1.591.363.53.755 1.117.95 1.731.224.53.196 1.033-.083 1.536-.979.447-1.482.335-1.51-.307-.251-.922.727-1.536 1.565-1.508.867.028 1.678.53 2.265 1.145 1.006 1.06 1.37 2.457 1.23 3.88.251-.083.53-.139.782-.223-.559-.81-.028-1.675.727-2.094.643-.335 1.37-.25 1.985.084 1.006.53 1.705 1.508 2.348 2.401.307.447 1.034.028.726-.418-1.062-1.48-2.655-3.546-4.752-3.072-1.537.335-2.767 2.122-1.76 3.518.251.363.726.196.782-.223.252-2.653-1.705-6.282-4.836-5.835-1.118.167-1.928.949-1.928 2.094 0 .893.559 1.814 1.509 1.87 1.118.084 1.873-1.005 1.929-2.01.084-1.396-1.007-2.904-1.845-3.937-.783-.921-1.929-1.703-3.159-1.228-1.006.363-1.677 1.368-1.258 2.4.168.56.979.336.783-.167zM172.105 63.937c-1.174-.698-.335-2.764.979-1.898 1.257.837-.42 2.261-1.23 1.284-.336-.419-.923.168-.587.586.643.782 1.872.726 2.6.084.838-.754.614-1.982-.252-2.596-.867-.615-2.125-.503-2.656.502-.531.95-.168 2.234.755 2.764.42.252.838-.446.391-.726zM261.163 2.876c-.615-.866.447-2.178 1.425-1.787-.084-.056-.167-.14-.251-.196.53.922-.252 2.178-1.286 2.122.14.112.28.196.391.308-.167-.475-.363-.978-.53-1.452-.197-.503-1.007-.28-.812.223.168.475.364.977.532 1.452.055.195.195.307.39.307.895.056 1.678-.503 2.07-1.284.307-.615.475-1.899-.28-2.29-1.65-.81-3.354 1.647-2.376 3.016.307.446 1.034.028.727-.42zM283.916 44.393c-.14-.642.336-1.34.979-1.48.587-.111 1.118.363 1.257.894.364 1.256-1.285 1.843-2.068.977-.363-.39-.95.195-.587.586 1.453 1.62 4.249.028 3.354-2.038-.391-.921-1.37-1.507-2.348-1.2-1.034.335-1.649 1.424-1.425 2.485.167.53.978.307.838-.224zM193.182 275.489c-1.063-.503-.979-1.955 0-2.513.95-.53 1.844-.056 2.711.335.727.335 1.565.642 2.208 0 .587-.558.475-1.424.503-2.15.112-2.82 2.852-2.261 4.724-1.563.504.195.727-.615.224-.81-1.65-.642-3.941-1.256-5.255.363-.391.475-.503 1.033-.531 1.62-.028.39.14 1.256-.084 1.619-.615.921-1.454.084-2.096-.196-1.23-.53-2.991-.39-3.746.894-.643 1.089-.252 2.568.894 3.099.503.251.923-.475.448-.698z" transform="translate(2.795 15.077)"/>
        </g>
        <g fill="#E8E8E8">
            <path d="M.42 57.516C-.42 67.762.027 78.037 1.76 88.172c.084.53.895.307.81-.223C.868 77.897.42 67.679 1.259 57.516c.056-.53-.783-.53-.839 0z" transform="translate(209.087 167.242)"/>
            <path d="M.978 58.158c4.361 1.508 8.861 2.513 13.446 3.015 4.304.447 9.252.922 13.389-.698.503-.195.28-1.005-.224-.81-4.025 1.592-8.917 1.117-13.165.67-4.5-.474-8.945-1.507-13.222-2.987-.531-.195-.727.614-.224.81z" transform="translate(209.087 167.242)"/>
            <path d="M7.631 59.303C6.178 57.04 4.976 54.64 4.137 52.07c-.391-1.228-.727-2.457-.978-3.713-.14-.754-.28-1.508-.364-2.262 0-.083-.307-2.066.28-1.787.28.14.755-.111.615-.474-1.538-3.881-2.376-7.958-2.46-12.146l-.42.42c.224.083.42.167.644.25.28.336.81-.027.698-.418-.559-1.787-.922-3.63-1.034-5.528-.028-.447.056-5.473.363-5.39.336.085.56-.222.504-.502-.531-3.155-.783-6.365-.643-9.548.056-1.592.195-3.155.447-4.719.224-1.424.335-3.155 1.454-4.188l-.671-.084c2.348 4.412 3.661 9.242 4.863 14.044 1.174 4.719 2.209 9.493 3.103 14.295 1.817 9.912 2.963 19.935 3.466 30.015.028.53.867.53.839 0-.503-10.135-1.65-20.243-3.494-30.238-.923-4.97-1.985-9.912-3.215-14.826C6.932 10.554 5.62 5.863 3.298 1.536c-.14-.252-.475-.252-.67-.084-.95.865-1.23 2.01-1.454 3.21C.867 6.367.643 8.126.531 9.857c-.224 3.63 0 7.26.615 10.86l.503-.502C.028 19.768.224 23.258.196 24.04c-.112 2.736.307 5.473 1.118 8.097.223-.14.475-.279.699-.419-.364-.418-.671-.558-1.23-.502-.224.028-.42.167-.42.419.084 4.243.923 8.404 2.488 12.368.196-.167.42-.307.615-.474-2.795-1.34-1.174 4.97-.95 5.919.838 3.63 2.348 7.091 4.36 10.219.336.502 1.063.083.755-.363z" transform="translate(209.087 167.242)"/>
            <path d="M12.076 31.41c-.252-1.787-.308-3.601-.084-5.388.056-.447 1.118-5.696 1.649-5.473.28.14.615-.028.643-.363.168-3.573 1.286-6.756 2.6-10.051 1.313-3.267 2.6-6.422 4.78-9.242h-.588c1.594 1.815 1.398 4.58 1.482 6.84.112 2.542.196 5.082.224 7.623.055 4.998-.028 9.996-.252 14.993-.475 10.22-1.621 20.41-3.354 30.49-.084.53.726.753.81.223 1.817-10.498 2.963-21.136 3.438-31.802.224-5.36.28-10.721.168-16.082-.056-2.68-.112-5.36-.307-8.04-.112-1.76-.392-3.49-1.622-4.859-.14-.167-.447-.167-.587 0-2.152 2.792-3.494 5.863-4.78 9.13-1.425 3.518-2.627 6.924-2.823 10.777.224-.111.42-.251.643-.363-1.705-.753-2.264 2.876-2.488 3.853-.615 2.625-.67 5.277-.28 7.93-.027.558.784.335.728-.196zM2.152 88.87c8.75 2.82 18.226 2.68 26.89-.39.504-.168.28-.978-.223-.81-8.525 3.015-17.834 3.155-26.443.39-.531-.167-.755.643-.224.81z" transform="translate(209.087 167.242)"/>
            <path d="M27.701 60.196c.336 4.523.699 9.046 1.006 13.57.308 4.606.42 9.269-.335 13.848-.084.53.727.754.81.223.755-4.495.7-9.018.392-13.541-.307-4.69-.67-9.41-1.034-14.1-.028-.53-.867-.53-.839 0z" transform="translate(209.087 167.242)"/>
        </g>
        <g>
            <path fill="#FFF" d="M55.025 187.124c5.715-3.04 11.459-6.08 17.174-9.12 2.69.447 6.388 1.033 10.815 1.646 8.853 1.227 23.114 3.207 41.156 3.737 18.043.53 31.575-.613 36.73-1.115 12.412-1.172 19.92-2.761 26.056-4.407 5.575-1.506 10.17-3.15 13.448-4.406 2.69.893 5.688 2.092 8.881 3.737 1.822.948 3.503 1.924 4.987 2.9-5.267 1.506-12.355 3.43-20.788 5.383-17.763 4.127-31.379 6.079-34.237 6.497-16.333 2.315-39.615 5.578-68.893 2.203-9.105-1.087-21.237-3.067-35.329-7.055z" transform="translate(33 76)"/>
            <path fill="#161616" d="M54.717 187.152c.14 1.171.308 2.314.448 3.486 2.101.585 5.183 1.422 8.993 2.259 7.285 1.617 14.681 2.733 24.347 3.486 35.693 2.788 64.215.306 64.215.306 14.26-1.255 28.1-2.537 45.975-7.724 6.724-1.953 12.215-3.933 16.138-5.466l-.925-3.933c-1.092.447-2.717 1.088-4.707 1.813-13.504 4.908-24.626 6.526-34.544 7.725-21.797 2.677-32.696 3.988-48.694 4.239-18.21.307-42.641-.781-71.246-6.191z" transform="translate(33 76)"/>
            <path fill="#161616" d="M54.52 187.682v2.677c0 .53.841.53.841 0v-2.677c0-.558-.84-.558-.84 0z" transform="translate(33 76)"/>
            <path fill="#161616" d="M54.829 191.14c20.928 5.633 42.781 6.358 64.326 6.665 20.705.279 41.55-.614 61.946-4.379 11.486-2.119 22.805-5.214 33.732-9.425.504-.196.28-1.004-.224-.81-19.276 7.447-39.756 11.24-60.349 12.829-20.76 1.59-41.717 1.227-62.477-.028-12.411-.78-24.71-2.398-36.73-5.633-.532-.167-.756.641-.224.78z" transform="translate(33 76)"/>
            <path fill="#161616" d="M214.833 183.415c.168-1.171.224-2.37.112-3.542-.056-.53-.897-.53-.84 0 .083 1.116.083 2.231-.085 3.319-.084.502.729.753.813.223zM55.193 187.598c5.884-2.789 11.655-5.773 17.314-9.008.477-.278.056-.976-.42-.725-5.66 3.207-11.43 6.22-17.314 9.008-.504.223-.084.948.42.725z" transform="translate(33 76)"/>
            <path fill="#161616" d="M72.283 178.2c33.424 6.33 68.165 7.502 101.87 2.705 8.965-1.283 17.874-3.263 26.167-6.944.504-.223.056-.948-.42-.725-7.453 3.29-15.41 5.215-23.45 6.47-8.181 1.283-16.446 2.064-24.711 2.593-16.782 1.06-33.648.781-50.374-.808-9.694-.92-19.304-2.315-28.858-4.1-.532-.083-.756.725-.224.809z" transform="translate(33 76)"/>
            <path fill="#161616" d="M200.152 173.822c4.987 1.617 9.666 3.876 14.036 6.748.449.307.869-.418.42-.725-4.426-2.9-9.189-5.187-14.232-6.832-.532-.167-.756.641-.224.809z" transform="translate(33 76)"/>
            <path fill="#161616" d="M55.25 187.152c9.889 3.318 20.2 4.88 30.565 5.717 10.507.836 21.097 1.087 31.631 1.087 20.929 0 41.913-1.422 62.534-5.159 11.71-2.12 23.31-4.992 34.6-8.756.505-.168.28-.976-.224-.81-19.863 6.582-40.512 10.43-61.356 12.327-20.733 1.896-41.69 2.008-62.478.78-11.879-.724-23.786-2.202-35.105-5.995-.448-.167-.672.642-.168.809zM71.387 27.887c34.236-7.892 69.481-9.62 104.502-9.955 9.918-.112 19.836-.084 29.754-.084.533 0 .533-.837 0-.837-35.133-.056-70.434-.083-105.315 4.741-9.806 1.367-19.528 3.096-29.165 5.327-.533.139-.309.948.224.808z" transform="translate(33 76)"/>
            <path fill="#FFF" d="M207.38 17.095c.364 12.968.589 27.999.505 44.703-.056 9.705-.14 5.076-1.009 45.457-.504 23.258-.644 32.014-2.297 45.456-1.065 8.757-2.354 15.952-3.306 20.832 7.228 2.008 14.12 3.904 20.172 5.577 9.357 2.594 11.85 3.291 15.577 3.82 5.771.782 12.804.893 20.929-.752 2.997-24.43 4.65-45.261 5.603-61.213 3.418-56.053.224-81.877-1.009-90.94-1.68-12.215-3.754-22.254-5.35-29.198-5.996 1.143-10.871 2.37-14.29 3.29-11.738 3.207-21.04 6.972-28.829 10.151-2.885 1.2-5.21 2.176-6.696 2.817zM14.233 1.339c-.225 2.398-.477 5.354-.7 7.92-4.652 52.79-6.977 79.2-7.734 96.183-.784 18.238-.84 44.675 3.054 77.555.308.669.869 1.59 1.877 2.342 1.317.976 2.522.948 4.903 1.618 1.877.53 2.858 1.06 3.755 1.394 2.577 1.004 8.349 2.147 15.689 1.868 10.534-.418 18.631-3.625 24.57-6.051 5.576-2.259 10.03-4.685 13.113-6.526-1.737-15.533-3.026-31.93-3.755-49.137-1.485-36.588 0-70.193 3.054-100.144-1.289-.502-3.166-1.199-5.379-2.091-3.81-1.534-12.944-5.243-29.025-13.051-6.36-3.068-14.317-7.056-23.422-11.88z" transform="translate(33 76)"/>
            <path fill="#161616" d="M257.026.725c.336 1.84.784 4.378 1.289 7.418.7 4.323 2.27 14.557 3.418 27.999 1.177 14 1.457 26.047 1.485 35.64.084 19.465-.645 33.744-2.55 67.041-.588 10.374-1.457 25.573-2.55 44.118 1.15-.084 2.27-.14 3.419-.223.56-4.63 1.317-11.518 1.905-19.94.448-6.08.644-10.513.84-15.282.981-21.864 1.15-21.613 1.485-30.537.673-17.596.533-31.122.42-43.28-.084-8.395-.336-16.343-.84-32.238-.364-10.82-.728-20.414-3.194-32.88-.644-3.179-1.26-5.828-1.709-7.64-1.149-.056-2.27-.112-3.418-.196zM9.946 1.84c-.196.977-.504 2.483-.813 4.323-.896 5.327-1.12 9.342-1.204 10.653-.617 9.482-1.85 14.111-3.642 35.166-.337 3.848-.589 7.223-1.093 14C2.157 79.813 1.653 86.73 1.289 94.537.897 103.267.84 109.43.756 121.756c-.084 10.653-.14 18.35.14 28.417.225 8.032.673 18.936 1.766 31.931 2.269.67 4.51 1.339 6.78 2.008-.028-1.255-.112-3.514-.28-6.33-.673-12.522-1.766-17.597-2.018-28.027-.084-3.207-.028-5.327 0-8.366.308-21.808-.056-31.764.14-45.93.337-23.12 1.906-41.19 3.25-56.584 1.261-14.557 2.69-27.023 3.923-36.783-1.541-.084-3.026-.168-4.511-.251zM206.708 17.569c1.036 20.47.896 40.994.616 61.464-.308 20.023-.448 40.102-1.989 60.097-.868 11.378-2.241 22.728-4.37 33.967-.113.53.7.753.812.223 3.726-19.66 5.099-39.656 5.715-59.623.645-20.386.925-40.827.897-61.24-.028-11.63-.224-23.259-.813-34.888-.056-.53-.896-.53-.868 0z" transform="translate(33 76)"/>
            <path fill="#161616" d="M207.744 17.569c15.55-7.669 32.052-13.19 49.086-16.454.532-.111.308-.92-.224-.808-17.09 3.29-33.676 8.868-49.282 16.537-.476.25-.056.976.42.725z" transform="translate(33 76)"/>
            <path fill="#161616" d="M256.55.865c4.623 23.174 6.023 46.85 5.995 70.443-.056 23.593-1.457 47.13-2.605 70.694l-2.017 40.716c-.028.53.812.53.84 0 1.205-24.04 2.466-48.078 3.558-72.145 1.065-23.592 1.737-47.24.14-70.806-.896-13.135-2.493-26.214-5.07-39.098-.14-.557-.953-.334-.841.196z" transform="translate(33 76)"/>
            <path fill="#161616" d="M201.105 173.264c1.26 1.45 3.502 1.729 5.267 2.259 2.41.725 4.847 1.45 7.256 2.175 4.875 1.45 9.722 2.984 14.653 4.211 9.638 2.343 19.527 2.817 29.305 1.143.533-.083.309-.892-.224-.808-9.638 1.645-19.387 1.17-28.857-1.144-4.51-1.087-8.937-2.482-13.364-3.82l-6.724-2.008-3.362-1.004c-1.177-.363-2.494-.614-3.334-1.59-.392-.39-.98.196-.616.586zM257.11.892c1.037.251 2.073.502 3.138.753.532.14.756-.669.224-.808-1.037-.251-2.073-.502-3.138-.753-.532-.112-.756.697-.224.808z" transform="translate(33 76)"/>
            <path fill="#161616" d="M260.192 1.366c2.802 11.267 3.558 23.035 4.37 34.609.841 11.824 1.29 23.676 1.485 35.556.337 23.565-.476 47.13-1.82 70.666-.757 13.33-1.71 26.66-2.69 39.99-.028.53.812.53.84 0 1.765-23.703 3.362-47.408 4.119-71.168.756-23.704.7-47.464-.813-71.168-.812-12.884-1.54-26.103-4.65-38.68-.169-.557-.981-.334-.841.195z" transform="translate(33 76)"/>
            <path fill="#161616" d="M258.37 183.192l3.671-.335c.532-.056.532-.892 0-.836-1.233.111-2.437.223-3.67.334-.532.056-.532.893 0 .837zM71.359 28.138c-1.877 19.326-2.998 38.708-3.362 58.117-.364 19.494.028 39.015 1.204 58.48.645 10.932 1.57 21.836 2.69 32.712.056.53.897.53.84 0-2.017-19.298-3.277-38.68-3.782-58.09-.504-19.492-.252-39.014.785-58.479.588-10.932 1.4-21.836 2.437-32.74.084-.53-.756-.53-.812 0z" transform="translate(33 76)"/>
            <path fill="#161616" d="M14.765 2.008c18.183 10.067 37.066 18.88 56.454 26.381.504.196.728-.613.224-.808C52.11 20.107 33.312 11.322 15.185 1.283c-.476-.28-.896.446-.42.725z" transform="translate(33 76)"/>
            <path fill="#161616" d="M13.896 1.813c-3.11 23.592-5.267 47.324-6.444 71.112-1.176 23.788-1.344 47.604-.56 71.392.448 13.358 1.205 26.716 2.27 40.046.056.53.896.53.84 0-1.905-23.732-2.802-47.548-2.746-71.336.056-23.815 1.121-47.603 3.138-71.335 1.149-13.33 2.606-26.605 4.343-39.88.056-.53-.785-.53-.84 0z" transform="translate(33 76)"/>
            <path fill="#161616" d="M9.133 184.893c15.606 8.45 34.293 6.637 50.15-.056 4.763-2.008 9.358-4.434 13.785-7.083.448-.28.028-1.004-.42-.725-14.765 8.896-32.08 15.115-49.534 11.88-4.735-.865-9.33-2.454-13.56-4.741-.449-.251-.897.474-.42.725z" transform="translate(33 76)"/>
            <path fill="#161616" d="M2.942 182.578c1.96.92 3.978 1.701 6.023 2.399.505.167.729-.642.225-.81-1.99-.668-3.923-1.421-5.828-2.314-.504-.223-.925.502-.42.725z" transform="translate(33 76)"/>
            <path fill="#161616" d="M9.386 2.008c-3.026 23.37-5.548 46.795-7.2 70.304C.56 95.709-.225 119.162.28 142.616c.28 13.274.953 26.549 2.101 39.767.056.53.897.53.84 0-2.016-23.453-2.605-46.99-2.044-70.527.532-23.453 2.157-46.879 4.482-70.248C6.976 28.389 8.517 15.17 10.226 1.98c.084-.502-.756-.502-.84.028z" transform="translate(33 76)"/>
            <path fill="#161616" d="M9.862 2.594c1.625-.335 3.25-.447 4.93-.363.533.028.533-.809 0-.837-1.736-.083-3.445.056-5.154.39-.533.112-.308.921.224.81zM217.438 19.465c1.177 32.35 1.121 64.727-.224 97.076-.364 9.064-.84 18.099-1.429 27.162-.028.53.813.53.84 0 2.046-32.293 2.83-64.67 2.354-97.048-.14-9.063-.364-18.126-.7-27.19-.028-.53-.869-.53-.84 0zM231.026 7.864c1.121 22.505 1.681 45.066 1.653 67.6 0 22.532-.56 45.093-1.68 67.598-.617 12.744-1.43 25.461-2.41 38.178-.028.53.812.53.84 0 1.738-22.477 2.914-44.983 3.559-67.515.616-22.533.7-45.094.224-67.627-.28-12.745-.729-25.49-1.345-38.234-.028-.53-.869-.53-.84 0zM247.332 2.9c1.57 23.398 2.522 46.851 2.774 70.332.252 23.565-.14 47.102-1.205 70.639-.588 13.19-1.4 26.381-2.437 39.544-.028.53.812.53.84 0 1.793-23.398 2.97-46.85 3.446-70.304.477-23.537.308-47.102-.532-70.666-.476-13.191-1.149-26.382-2.045-39.573-.028-.53-.869-.53-.84.028zM214.553 154.161c-.645 7.307-1.822 14.557-3.53 21.696-.113.53.672.753.812.224 1.737-7.223 2.914-14.53 3.558-21.92.056-.53-.784-.53-.84 0zM23.954 7.446c-3.362 23.397-4.79 47.046-5.015 70.666-.196 23.76.785 47.493 2.242 71.197.812 13.414 1.765 26.8 2.717 40.213.028.53.869.53.84 0-1.68-23.62-3.361-47.24-4.286-70.89-.924-23.592-1.064-47.24.308-70.833.785-13.414 2.074-26.828 3.979-40.13.112-.502-.7-.753-.785-.223zM40.064 15.254c-2.13 22.617-3.558 45.317-4.034 68.045-.449 22.7.084 45.401 1.96 68.046 1.037 12.577 2.494 25.098 4.4 37.564.083.53.896.306.812-.223-3.418-22.478-5.38-45.178-6.108-67.906-.728-22.421-.308-44.899.925-67.292.7-12.745 1.68-25.49 2.886-38.206.056-.557-.785-.557-.841-.028zM56.202 21.92c-2.746 21.11-4.343 42.36-4.763 63.638-.42 21.278.308 42.584 2.185 63.779 1.065 11.824 2.466 23.592 4.23 35.333.085.53.897.307.813-.223-3.166-21.027-5.183-42.194-6.051-63.416-.869-21.166-.56-42.389.868-63.555.813-11.88 1.99-23.76 3.53-35.584.112-.502-.728-.502-.812.027z" transform="translate(33 76)"/>
            <path fill="#3F3F3F" d="M241.056 4.797c3.11 12.633 5.632 27.44 6.472 44.034 2.102 42.221-7.872 76.718-16.558 98.86-6.135 9.789-12.243 19.577-18.379 29.366 5.968 2.565 14.821 5.55 25.86 6.442 7.62.613 14.232.055 19.388-.781.056-1.227.98-19.884 1.036-21.111 3.054-62.495 3.25-66.762 3.362-71.057.504-17.485.42-42.584-2.577-73.901-1.037-5.327-2.074-10.653-3.11-15.952-5.127 1.339-10.31 2.705-15.494 4.1z" opacity=".12" transform="translate(33 76)"/>
            <path fill="#3F3F3F" d="M45.527 18.434c-.728 3.04-1.82 7.585-3.11 13.134-5.715 24.764-9.918 42.975-12.159 59.735-3.978 29.533-7.817 58.145 8.545 81.626 4.763 6.833 9.974 11.434 13.448 14.167-3.362 1.31-7.536 2.51-12.411 3.096-13.56 1.59-24.43-2.79-29.754-5.41-2.017-18.49-3.418-38.29-3.866-59.233C5.21 79.2 8.993 37.536 14.765 1.7 24.99 7.28 35.245 12.856 45.527 18.434z" opacity=".13" transform="translate(33 76)"/>
        </g>
        <g>
            <path fill="#000" d="M4.359 4.36c-.363.28-.084 1.377.419 3.262.196.731.391 1.294.503 1.66-.224 1.518-.42 3.037-.643 4.556-.447.056-1.592.309-2.654 1.237-.978.872-1.37 1.884-1.509 2.334.894.085 1.984.282 3.157.647 1.705.535 3.046 1.266 4.024 1.885 0 .337.056.984.503 1.462.391.394.866.45 1.145.506 1.006.17 2.208.394 3.745.732.67.393 1.788 1.04 3.157 1.8 4.638 2.53 6.315 2.953 10.953 5.428 2.99 1.603 2.738 1.66 4.834 2.672 3.213 1.575 5.98 2.503 7.851 3.037.782-.872 2.04-2.56 2.738-5.006.56-1.94.531-3.628.42-4.725.474.253 1.229.534 2.095.422 2.235-.253 3.66-2.813 4.107-4.64.392-1.604.028-2.617-.279-4.5-.699-4.22-1.313-7.988.42-10.379 1.452-1.997 4.442-2.925 6.845-5.597.223-.253.642-.731.503-.956-.252-.422-2.208.31-3.158.731-.614.281-5.225 2.419-6.622 7.256-.223.76-.251 2.954-.28 7.313-.027 3.178.029 4.978-1.229 6.019-.642.534-1.592.843-2.458.647-1.286-.282-1.9-1.547-2.46-2.391-1.452-2.222-3.52-3.15-6.062-4.416-1.984-.984-3.689-1.35-7.125-2.11-3.242-.702-4.22-.618-5.617-1.659-1.564-1.18-2.43-2.84-2.878-3.768-.447-.872-1.145-2.25-1.453-4.219-.167-1.153-.14-1.969-.419-2.025-.503-.113-.754 2.222-2.458 3.037-1.034.507-1.705.029-3.521.085-1.174.028-2.515.281-4.024.956-.503-.365-2.067-1.66-2.57-1.294z" transform="translate(45 60)"/>
            <path fill="#000" d="M5.197 13.613C4.61 8.972 8.801 4.753 13.44 5.23c4.386.45 7.292 5.822 7.153 9.844-.028.534.81.534.838 0 .14-4.444-3.157-10.294-7.991-10.688-5.086-.421-9.724 4.107-9.081 9.226.084.506.922.534.838 0z" transform="translate(45 60)"/>
            <path fill="#000" d="M5.113 16.538c1.705 3.346 5.365 5.709 9.193 5.203 3.493-.479 6.454-3.32 6.985-6.835.084-.534-.726-.76-.81-.225-.475 3.207-3.102 5.794-6.287 6.216-3.493.478-6.79-1.716-8.354-4.781-.252-.479-.978-.057-.727.422z" transform="translate(45 60)"/>
            <path fill="#000" d="M8.13 20.616c-.083-1.07 2.935-1.52 3.69-1.688 1.368-.31 2.765-.478 4.162-.478 2.599 0 5.086.675 7.293 2.053.447.281.894-.45.42-.731-2.85-1.772-6.176-2.39-9.473-2.081-1.732.168-3.437.534-5.085 1.097-.894.309-1.956.703-1.872 1.828.056.534.922.534.866 0zM20.146 10.884c1.76 2.138 4.61 2.644 7.153 3.207 3.38.787 6.873 1.49 9.835 3.375 6.119 3.88 7.265 12.346 2.43 17.775-.363.393.224 1.012.587.59 4.303-4.81 4.415-12.178-.027-16.96-2.348-2.53-5.7-3.852-8.97-4.724-3.325-.872-8.103-1.013-10.45-3.881-.307-.394-.894.197-.558.618z" transform="translate(45 60)"/>
            <path fill="#000" d="M39.704 25.594c-1.397-1.857-3.855-2.503-6.007-1.603-2.654 1.096-2.794 4.387-2.487 6.89.056.535.894.535.839 0-.252-1.968-.28-5.006 1.732-5.99 1.732-.872 3.995-.422 5.169 1.153.335.422 1.062 0 .754-.45z" transform="translate(45 60)"/>
            <path fill="#000" d="M31.937 30.488c-1.537-1.182-3.13-2.194-5.113-1.66-.224.056-.336.31-.28.506.503 1.97 3.577 2.785 5.197 3.488 2.487 1.097 5.03 2.025 7.6 2.84.503.17.727-.646.224-.815-2.068-.647-4.08-1.35-6.091-2.194-1.09-.45-2.152-.928-3.214-1.434-.95-.45-2.654-.985-2.934-2.11-.083.17-.195.338-.279.507 1.732-.479 3.157.562 4.443 1.575.447.365.866-.366.447-.703zM7.376 20.531c1.09 1.8 3.298 2.11 5.225 2.39 2.85.423 5.7.423 8.55.113.531-.056.531-.9 0-.843-2.29.253-4.582.309-6.873.084-1.928-.197-5.03-.31-6.203-2.166-.251-.478-.978-.056-.699.422zM.866 17.663c.363-1.97 2.068-2.982 3.968-3.066-.14-.113-.28-.197-.391-.31.14.675.335 1.322.614 1.941.196.506 1.006.281.81-.225-.25-.647-.446-1.265-.614-1.94-.028-.17-.224-.31-.391-.31-2.236.113-4.36 1.35-4.778 3.684-.112.535.698.76.782.226zM5.728 8.944C5.308 7.734 5 6.469 4.89 5.175c0-.112-.028-.225-.028-.337-.028-.254 0-.226.112.084.251.169.502.365.754.562.42.366.81.76 1.146 1.182.363.421.95-.197.586-.591-.475-.563-2.459-2.869-3.297-1.969-.419.45-.112 1.49-.028 1.997.14 1.04.42 2.081.755 3.066.223.506 1.034.31.838-.225zM15.172 5.006c.252-.45.503-.9.782-1.35.112-.197.224-.365.308-.562.167-.281.167-.535.503-.45.39.084.251 1.012.251 1.35 0 .534.028 1.068.028 1.603 0 .534.838.534.838 0 0-.872.028-1.744-.028-2.616-.028-.562-.223-1.181-.838-1.378-.559-.169-.95.197-1.23.619-.474.76-.893 1.575-1.34 2.334-.28.506.447.928.726.45zM41.94 23.4c.167 2.138 2.542 2.84 4.19 1.8 2.432-1.519 2.963-4.95 2.655-7.537-.419-3.544-1.257-6.835-.056-10.35 1.146-3.347 3.996-6.075 7.6-6.3.531-.029.531-.872 0-.844-4.917.31-8.27 4.528-8.969 9.197-.419 2.784.196 5.372.56 8.1.223 1.8.11 3.515-.7 5.175-.363.703-.866 1.406-1.536 1.856-1.034.647-2.822.45-2.934-1.069 0-.562-.838-.59-.81-.028z" transform="translate(45 60)"/>
            <path fill="#000" d="M42.387 24.919c.866 2.334 3.884 1.293 5.197-.056 2.151-2.194 1.676-5.85 1.509-8.635-.028-.534-.867-.534-.839 0 .112 1.772.28 3.684-.028 5.456-.14.844-.447 1.632-1.005 2.307-.615.759-3.297 2.672-4.024.703-.196-.506-1.006-.281-.81.225z" transform="translate(45 60)"/>
            <path fill="#000" d="M56.357.14c-3.185 1.238-6.398 2.982-7.683 6.357-1.481 3.881-.42 8.1-.503 12.122 0 .534.838.534.838 0 .084-3.516-.755-7.116.084-10.603.922-3.825 4.08-5.738 7.488-7.06.503-.197.28-1.012-.224-.815z" transform="translate(45 60)"/>
            <path fill="#000" d="M55.715.619c-2.934 1.35-5.616 3.712-6.986 6.722-.726 1.575-.614 3.318-.614 5.034 0 2.194.084 4.416.251 6.61.028.534.866.534.838 0-.111-1.773-.195-3.516-.223-5.288-.028-1.856-.28-4.05.419-5.794 1.201-2.953 3.912-5.231 6.734-6.553.503-.225.084-.956-.42-.731z" transform="translate(45 60)"/>
            <path fill="#FFF" d="M6.846 10.8c.782 1.378 2.766.9 2.961-.619.028-.281-.39-.253-.419 0-.14 1.153-1.592 1.378-2.18.422-.139-.253-.502-.028-.362.197zM12.77 9.703c.865 1.49 3.073.9 3.1-.816 0-.28-.419-.28-.419 0-.027 1.322-1.648 1.744-2.319.62-.14-.254-.503-.057-.363.196zM11.093 11.56c.195.815.028 1.63-.475 2.306-.168.225.195.421.363.225.559-.76.726-1.716.53-2.644-.083-.253-.502-.14-.418.112z" transform="translate(45 60)"/>
            <path fill="#FFF" d="M11.26 11.531c-.084 1.069.503 2.082 1.481 2.531.252.113.447-.253.224-.365-.839-.394-1.37-1.238-1.286-2.166 0-.281-.419-.281-.419 0zM4.443 14.034c2.458-.197 4.023 1.829 5.672 3.32.195.168.503-.113.307-.31-1.732-1.575-3.409-3.628-5.98-3.46-.25.029-.25.45 0 .45zM9.025 18.984c3.157-2.025 6.901-2.7 10.562-1.884.251.056.363-.338.112-.394-3.773-.815-7.628-.14-10.87 1.94-.251.113-.028.479.196.338zM16.96 22.837c2.599.17 5.058-.646 7.041-2.362.196-.169-.083-.478-.307-.31-1.9 1.632-4.247 2.42-6.734 2.25-.251 0-.251.422 0 .422zM16.206 2.869c-.615 1.04-.755 2.25-.391 3.403.084.253.475.14.39-.113-.334-1.04-.223-2.137.336-3.065.168-.253-.195-.478-.335-.225zM5.141 5.484c.67.422 1.09 1.07 1.258 1.829.055.253.447.14.39-.113-.195-.872-.698-1.603-1.452-2.081-.224-.14-.42.225-.196.365zM19.922 9.984c.53.647 1.146 1.21 1.844 1.632.224.14.447-.225.224-.366-.67-.422-1.286-.956-1.76-1.575-.196-.197-.476.112-.308.31zM37.162 23.794c-.587-1.49-3.41-.478-4.331.112-1.649 1.097-2.375 3.15-1.76 5.035.083.253.475.14.39-.113-.474-1.49-.083-3.094 1.09-4.19.503-.479 1.174-.816 1.845-.985.475-.14 2.095-.45 2.347.225.111.281.503.169.419-.084z" transform="translate(45 60)"/>
            <path fill="#FFF" d="M31.406 28.969c-2.18-.928-4.499-1.013-6.762-.31-.251.085-.14.479.112.394 2.207-.703 4.415-.59 6.538.31.252.112.363-.31.112-.394z" transform="translate(45 60)"/>
        </g>
        <g>
            <g>
                <path fill="#EC615B" d="M2.529 12.29c-1.14 2.743-1.14 4.786-1.306 10.05-.195 6.494-.75 12.96-.806 19.427-.056 5.46-.14 13.717-.361 24.467 8.893.504 18.73.616 29.403.084 10.171-.504 19.565-1.54 28.041-2.827-4.002-13.633-6.642-23.571-8.532-31.27-1-4.115-2.473-10.274-6.53-17.468-2.224-3.947-4.53-6.915-6.226-8.902-.445-.392-10.255-8.706-21.594-4.787-.556.224-8.81 3.247-12.089 11.225z" transform="translate(115 38) translate(34.183 154.808)"/>
                <path fill="#C64F4F" d="M18.898 28.61c1.862 3.331 3.724 6.663 5.558 9.994.25.476.973.056.723-.42-1.862-3.331-3.724-6.663-5.558-9.994-.25-.476-.973-.056-.723.42z" transform="translate(115 38) translate(34.183 154.808)"/>
                <path fill="#C64F4F" d="M18.676 28.442c4.28 5.375 6.753 11.506 8.087 18.224 1.25 6.355 2.056 12.794 2.529 19.26.028.532.861.532.834 0-.5-6.634-1.334-13.269-2.613-19.792-1.334-6.746-3.946-12.905-8.226-18.28-.333-.448-.945.168-.611.588z" transform="translate(115 38) translate(34.183 154.808)"/>
                <path fill="#3F3F3F" d="M25.373.42c.973 1.96 2.363 4.843 3.919 8.314 4.53 10.134 9.227 20.828 11.728 33.985 1.028 5.319 2 13.017 1.584 22.62 2.334-.113 4.808-.309 7.392-.588 2.585-.28 5.058-.616 7.393-1.008-.723-2.464-1.89-6.383-3.196-11.226-3.64-13.55-4.141-17.776-7.254-26.706-2.306-6.635-4.446-11.142-7.531-15.453-2.78-3.891-5.392-6.327-8.699-8.034C28.653 1.26 26.735.728 25.373.42z" opacity=".19" transform="translate(115 38) translate(34.183 154.808)"/>
                <path fill="#3F3F3F" d="M18.731 28.75c1.084 4.087 2.029 8.958 2.474 14.445.778 9.49-.223 17.58-1.445 23.627l9.56-.588c-.334-6.354-1.056-11.701-1.751-15.76-1.751-10.33-3.585-14.166-5.058-16.63-1.39-2.267-2.78-3.974-3.78-5.094z" opacity=".11" transform="translate(115 38) translate(34.183 154.808)"/>
            </g>
            <g>
                <path fill="#FFF" d="M11.2.7c-.917.616-1.473 1.791-2.557 4.115-.89 1.904-1.306 3.387-1.973 5.599C4.836 16.684 5.03 15.62 4.39 18c-.834 3.164-2.334 8.706-3.168 16.013C.417 41.095.583 46.554.61 47.87c.306 8.314 1.751 14.501 2.724 18.476 1.723 7.139 4.03 13.073 8.615 24.915 1 2.547 1.834 4.647 2.418 6.103-.417.056-1.084.14-1.89.252-4.196.504-4.78.392-6.475.755-2.168.476-4.113.952-4.864 2.604-.333.756-.472 1.82-.055 2.184.528.447 1.556-.56 3.335-1.148 1.5-.476 2.834-.448 3.752-.308-.723 1.428-1.14 2.715-1.39 3.639-.611 2.128-1.084 3.863-.306 5.095.39.616 1.14 1.176 1.751 1.008.334-.084.64-.392 1.473-2.604.806-2.211.862-2.911 1.529-3.779.583-.728 1.25-1.12 1.695-1.344-.222.7-.473 1.736-.584 2.996-.055.756-.139 1.455 0 2.351.111.812.362 2.548 1.64 3.5.222.168 1.14.867 1.695.503.473-.28.334-1.063.528-3.583.167-2.127.334-2.715.473-3.051.361-.98.917-1.68 1.334-2.1-.14 2.016-.111 3.695-.056 4.927.111 1.988.306 2.884.945 3.444.361.307.973.615 1.473.391.5-.224.667-.923.806-1.791.611-3.276.25-4.227.945-5.879.278-.644.583-1.428 1.334-1.988 1.584-1.175 3.835-.475 4.14-.391 1.335.42 1.835 1.147 2.502.84.556-.253.861-1.064.89-1.736.027-1.652-1.78-2.912-3.336-3.947-.778-.532-1.945-1.232-3.501-1.792-1.362-2.716-3.085-6.663-4.503-11.674-.945-3.359-1.39-5.934-1.806-8.37-1.473-8.538-.945-11.813-2.585-20.296-.389-2.043-.778-3.667-1-4.59.111-1.4.306-3.584.583-6.243.918-8.679 1.529-14.11 3.391-20.492 1.473-5.011 2.974-9.126 2.974-9.126 1.89-5.123 2.5-5.823 2.279-7.475C22.705 2.94 14.618-1.596 11.2.7z" transform="translate(115 38) translate(6.114 118.695)"/>
                <path fill="#161616" d="M9.06 3.36C4.113 14.864 1 27.153.333 39.695c-.694 12.793 1.501 25.306 5.614 37.4 2.335 6.914 5.17 13.633 8.06 20.352.222.504.917.056.722-.42-5.002-11.646-9.893-23.46-12.228-35.945C.195 48.766.667 36.028 3.335 23.795c1.5-6.859 3.668-13.55 6.447-19.988.195-.504-.5-.952-.722-.448zM19.426 19.344c-3.502 10.666-5.336 21.835-5.53 33.061 0 .532.833.532.833 0 .195-11.17 2.03-22.227 5.503-32.837.167-.504-.64-.728-.806-.224z" transform="translate(115 38) translate(6.114 118.695)"/>
                <path fill="#161616" d="M10.978 47.31c2.473 3.471 3.473 7.615 4.057 11.758.611 4.227.89 8.51 1.5 12.737 1.224 8.594 3.225 17.16 7.254 24.859.25.476.973.056.723-.42-4.197-8.006-6.17-16.937-7.337-25.839-1.028-7.81-.723-16.852-5.475-23.515-.306-.42-1.028 0-.722.42zM13.896 97.056c-2.585.14-5.17.392-7.699.868-1.806.364-3.724.951-4.974 2.407-.723.868-1.64 2.94-.056 3.527.695.252 1.306-.224 1.89-.56 1.445-.84 2.946-1.707 4.669-1.231.528.14.75-.672.222-.812-1.417-.392-2.695-.056-3.974.588-.389.196-.75.392-1.112.616-.222.112-.416.252-.639.392-.25-.448-.528-.896-.778-1.344.056-.7 1.445-1.512 1.946-1.792 1.361-.728 2.945-.98 4.446-1.204 2.029-.307 4.058-.503 6.086-.615.528-.028.528-.868-.027-.84z" transform="translate(115 38) translate(6.114 118.695)"/>
                <path fill="#161616" d="M11.617 99.547c-2.196.364-4.002 1.876-4.836 3.92-.89 2.127-1.64 5.29-.611 7.474.778 1.652 2.695 2.24 3.418.224.445-1.26.361-2.632.806-3.891.556-1.568 1.5-2.912 2.89-3.836.445-.307.028-1.035-.417-.727-1.306.867-2.279 2.043-2.918 3.47-.333.729-.583 1.485-.75 2.268-.14.644-.222 3.892-1.751 2.94-.861-.532-.945-2.24-.917-3.108.056-1.287.389-2.771.806-4.003.695-2.071 2.334-3.555 4.474-3.919.556-.084.334-.896-.194-.812z" transform="translate(115 38) translate(6.114 118.695)"/>
                <path fill="#161616" d="M14.23 101.619c-1.724 1.12-2.335 3.555-2.502 5.515-.167 2.1.417 4.367 1.973 5.85.917.868 2.335 1.316 2.585-.307.416-2.716-.667-6.551 2.279-8.175.472-.252.055-.98-.417-.728-1.056.588-1.723 1.54-2.14 2.688-.584 1.68-.25 3.387-.5 5.123-.112.784-.334 1.623-1.196.812-.305-.28-.583-.644-.805-1.008-.529-.84-.834-1.792-.918-2.772-.194-1.96.306-5.095 2.085-6.27.417-.308 0-1.036-.445-.728z" transform="translate(115 38) translate(6.114 118.695)"/>
                <path fill="#161616" d="M18.175 103.858c-.528 2.016-1.028 4.115-.694 6.215.139 1.008.722 3.471 2 3.723 1.446.28 2.03-2.295 2.168-3.247.306-2.072-.083-4.563 1.529-6.159.389-.392-.195-.98-.584-.588-1.945 1.932-1.278 4.731-1.862 7.195-.194.896-.75 2.24-1.667 1.204-.5-.532-.64-1.568-.75-2.268-.279-1.96.194-3.92.694-5.823.111-.532-.695-.756-.834-.252z" transform="translate(115 38) translate(6.114 118.695)"/>
                <path fill="#161616" d="M24.178 97.14c1.64.672 3.335 1.4 4.614 2.687.583.588 1.306 1.484 1.473 2.324.416 2.323-1.307.84-1.946.56-1.75-.784-5.225-.224-6.225 1.567-.25.476.472.896.723.42.528-.98 1.973-1.232 2.973-1.372.612-.084 1.306-.14 1.89.028.667.196 1.084.784 1.723.98.917.28 1.612-.364 1.75-1.26.251-1.455-1-3.079-1.972-4.03-1.362-1.316-3.113-2.044-4.836-2.744-.445-.168-.64.644-.167.84z" transform="translate(115 38) translate(6.114 118.695)"/>
                <path fill="#3F3F3F" d="M18.565 10.302c-3.196.196-5.114 8.426-6.17 12.99-1.195 5.122-2.279 12.177-2.057 22.45.195 9.183 1.362 16.181 1.751 18.617 1.751 10.47 4.502 19.26 7.198 26.146.89 2.52 1.75 5.04 2.64 7.53-.5 2.072-1 4.2-1.473 6.411-.611 2.912-1.167 5.767-1.612 8.51.528.056 1.251.028 1.751-.475.64-.644.556-1.68.584-2.576.028-.84.111-4.899 1.917-6.41 1.112-.924 2.89-.924 4.114-.476 1.25.475 1.806 1.4 2.64 1.12.639-.197 1.084-.98 1.167-1.596.278-2.044-3.613-4.144-4.252-4.48-1.25-.671-1.834-.755-2.64-1.595-1-1.064-1.334-2.324-1.473-2.884-2.307-8.846-3.446-8.286-5.003-18.448-1.167-7.67-.416-7.222-1.611-13.325-.834-4.311-1.529-6.075-1.751-9.798-.25-4.087.222-7.278.722-10.106 2.085-11.561 6.087-25.558 7.06-28.89-.89-1.4-2.113-2.8-3.502-2.715z" opacity=".13" transform="translate(115 38) translate(6.114 118.695)"/>
            </g>
            <g>
                <path fill="#FFF" d="M34.99 13.913c-.862-.028-1.53 1.54-1.696 1.96-.25.616-.64 1.82-.361 3.527 0 0 .166 1.176.722 8.286.14 1.596.167 3.92-.25 6.83-1.112 3.08-2.168 5.488-2.89 7.055-2.446 5.263-4.086 7.363-7.504 14.025-1.278 2.492-1.39 2.884-2.89 5.963-3.752 7.643-6.503 12.43-9.31 17.553C8.337 83.59 4.863 90.169.778 98.623c-.194.728-1.167 4.62 1.084 8.035 2.39 3.611 7.392 5.235 12.228 3.667.75-1.064 1.807-2.715 2.78-4.871.944-2.1 1.389-3.723 1.695-4.759.305-1.036 1.528-4.535 4.001-11.59.779-2.183 1.723-4.787 3.641-9.882 2.918-7.81 4.363-11.701 5.336-14.137 2.195-5.542 3.863-9.378 7.142-16.824 1.723-3.92 3.836-8.65 6.281-14.025 1.417-.812 3.363-2.072 5.447-3.891 3.002-2.604 4.502-4.815 7.393-9.014 1.862-2.744 3.279-5.151 2.89-7.559-.056-.336-.195-1.316-.723-1.456-.667-.196-1.5 1.148-2.417 2.324-.945 1.204-2.363 2.771-4.475 4.395.723-2.016 1.445-3.583 1.946-4.619 1.139-2.352 2.084-3.863 2.667-6.467.64-2.771.056-3.275-.11-3.415-.751-.56-2.03.504-2.78-.112-.667-.588-.083-1.876-.611-2.183-.528-.308-1.695.615-2.53 1.595-1.444 1.68-1.778 3.304-2.306 4.871-.5 1.54-1.417 3.64-3.14 5.963-.417.056-.973.084-1.223-.252-.278-.392.111-1.036.472-2.072.084-.252.028-.112.612-2.687.222-.98.639-2.8.972-4.255.473-2.1.695-2.968.25-3.891-.083-.196-.444-.952-.972-.98-.612-.028-1.084.952-1.445 1.708-1.473 3.05-2.224 4.59-2.418 5.122-.973 2.66-2.279 6.72-2.473 8.119-.028.168-.084.756-.362 1.511-.139.364-.222.504-.305.728-.695 1.568-.112 2.604-.834 3.164-.084.056-.5.364-.834.252-.361-.112-.528-.588-.723-2.184-.277-2.183-.11-2.827-.61-3.78-.334-.42-.751-1.23-1.335-1.259z" transform="translate(115 38) translate(46.411)"/>
                <path fill="#161616" d="M33.655 26.874c.195-2.043-.111-4.03-.222-6.074-.056-.98-.056-1.988.083-2.968.084-.56.195-1.12.361-1.651.278-.812.306-1.484 1.195-1.512.834-.028.779.476.918 1.176.139.616.166 1.26.194 1.875.056.868.083 1.764.278 2.604.195.868.723 1.595 1.695 1.287.5-.167.306-.98-.222-.811-.973.28-.89-3.024-.945-3.584-.083-.895-.167-1.82-.5-2.659-.473-1.176-1.556-1.764-2.474-.672-1.195 1.4-1.445 3.92-1.445 5.655 0 2.463.473 4.87.25 7.334-.027.532.806.532.834 0z" transform="translate(115 38) translate(46.411)"/>
                <path fill="#161616" d="M38.49 21.276c1.39-2.716 1.807-5.795 2.613-8.707.862-3.135 1.946-6.214 3.557-9.014.362-.616.723-1.483 1.251-1.96 1.028-.951 1.028.868.945 1.652-.167 1.736-.611 3.5-1 5.207-.362 1.568-.862 3.08-1.223 4.647-.195.868-.195 1.624.417 2.296.36.392.944-.196.583-.588-.695-.756.028-2.268.25-3.08.25-.923.5-1.847.695-2.77.39-1.709.778-3.444 1.028-5.208.14-.924.334-2.547-.472-3.247-.695-.588-1.39-.028-1.862.532-2.029 2.547-3.28 5.907-4.28 8.986-1.14 3.555-1.5 7.53-3.224 10.862-.25.448.473.867.723.392z" transform="translate(115 38) translate(46.411)"/>
                <path fill="#161616" d="M45.244 15.48c.834.085 1.14-.531 1.529-1.203.611-1.064 1.167-2.184 1.695-3.275 1.028-2.128 1.75-4.451 3.001-6.439.278-.448.612-1.008 1.056-1.344.362-.42.834-.56 1.445-.364.084.392.14.784.14 1.176.027 1.372-.417 2.744-.89 4.031-.945 2.548-2 5.067-3.03 7.615-.194.504.612.728.807.224.583-1.456 6.586-14.221 2.668-14.305-.778-.028-1.668.951-2.112 1.483-.779.924-1.334 1.988-1.835 3.08-.583 1.315-1.111 2.631-1.723 3.919-.36.784-.778 1.596-1.167 2.351-.25.504-.861 2.24-1.556 2.184-.556-.028-.556.812-.028.868z" transform="translate(115 38) translate(46.411)"/>
                <path fill="#161616" d="M55.082 5.179c.306-1.624 2.057-.504 2.279.532.195.868-.139 1.735-.417 2.547-.417 1.232-.89 2.436-1.39 3.612-.972 2.295-2.112 4.479-3.39 6.634-.278.476.445.896.723.42 1.195-1.988 2.25-4.06 3.196-6.159.806-1.82 1.778-3.835 2.084-5.822.194-1.26-.167-2.884-1.556-3.332-1.029-.336-2.14.308-2.335 1.372-.083.504.723.728.806.196z" transform="translate(115 38) translate(46.411)"/>
                <path fill="#161616" d="M53.47 19.26c1.056-1.204 2.085-2.408 3.14-3.611.556-.644 1.057-1.344 1.668-1.904.195-.168.39-.308.556-.476.472.168.945.336 1.445.504.139.252-.194.98-.278 1.204-.861 2.66-2.112 5.179-3.585 7.53-2.974 4.731-7.059 8.706-11.839 11.59-.472.28-.028 1.008.417.728 5.947-3.584 10.838-8.846 13.923-15.09.75-1.51 1.473-3.106 1.946-4.73.278-.952.444-2.24-.64-2.744-1.056-.503-2.167.476-2.834 1.176-1.584 1.652-3.03 3.5-4.53 5.235-.334.392.25.98.611.588zM32.933 26.007c.194 2.575.389 5.206-.028 7.782-.417 2.547-1.473 4.899-2.64 7.194-2.363 4.647-4.836 9.239-7.254 13.858-4.836 9.238-9.671 18.448-14.507 27.686-2.779 5.29-5.558 10.61-8.337 15.9-.25.476.472.896.722.42 9.977-19.064 20.149-38.044 29.96-57.22 1.166-2.267 2.25-4.59 2.723-7.082.556-2.828.361-5.683.139-8.538.027-.532-.806-.532-.778 0z" transform="translate(115 38) translate(46.411)"/>
                <path fill="#161616" d="M44.521 33.9c-8.893 18.925-16.646 38.297-23.483 58.06-2.001 5.74-4.002 11.478-6.42 17.05-.222.503.5.923.723.42C19.48 99.94 22.51 90 26.068 80.314c3.64-9.966 7.587-19.848 11.784-29.59 2.39-5.514 4.835-10.973 7.392-16.404.222-.476-.5-.896-.723-.42z" transform="translate(115 38) translate(46.411)"/>
                <path fill="#3F3F3F" d="M57.083 4.843c-1.14-.168-2.668 4.535-3.557 6.887-2.696 7.222-4.975 8.062-10.755 17.86-2.14 3.611-5.086 9.042-8.06 16.124C25.818 64.583 16.953 83.48 8.06 102.347c2.168 2.66 4.308 5.347 6.476 8.006 1.084-3.107 2.668-7.67 4.64-13.185 3.586-9.938 8.227-22.732 14.786-38.296 2.612-6.159 6.225-14.473 10.866-24.243 1.279-.812 3.057-2.072 5.003-3.807 2.612-2.296 6.058-5.403 8.42-10.47.75-1.568 1.696-3.975 2.196-7.139-.361-.168-.89-.364-1.473-.252-1 .196-1.529 1.176-1.945 1.848-1.612 2.491-3.975 4.143-4.28 3.947-.167-.14.305-.952 1.584-3.583 2.612-5.403 1.528-3.975 2.557-5.795.583-1.036 1.167-1.932.972-3.08 0-.503-.305-1.371-.778-1.455z" opacity=".1" transform="translate(115 38) translate(46.411)"/>
                <path fill="#3F3F3F" d="M55.388 23.935c-1.39.896-3.363 2.212-5.614 3.947-2.585 1.96-5.364 4.087-7.698 6.775-3.168 3.639-4.558 7.25-5.392 9.35-7.642 19.652-16.73 40.983-19.315 46.918-1.417 3.247-3.64 8.146-6.586 14.025 1.334 1.764 2.696 3.527 4.03 5.291 3.835-11.786 8.254-24.13 13.312-36.924 5.447-13.745 11.088-26.595 16.758-38.548 1.528-1.036 3.251-2.352 5.002-4.06 2.474-2.379 4.252-4.786 5.503-6.774z" opacity=".13" transform="translate(115 38) translate(46.411)"/>
            </g>
            <g>
                <path fill="#FFF" d="M13.173 10.078c-1.028.7-3.335 2.323-5.697 4.955-2.446 2.715-3.863 5.263-5.03 7.418C1.529 24.103.862 25.56.389 26.622c.723 1.4 1.89 3.556 3.502 6.131 2.862 4.563 5.086 7.027 8.92 11.982 1.613 2.071 3.947 5.179 6.726 9.098.445 2.1.834 4.31 1.167 6.634.667 4.76.918 9.182.918 13.158 1.028 1.12 2.806 2.743 5.419 3.89 4.335 1.932 8.282 1.373 10.338 1.037 4.558-.7 7.67-2.744 9.81-4.172 3.891-2.575 6.531-5.654 8.282-8.202-.361-4.367-.834-8.874-1.417-13.549-.5-3.975-1.056-7.838-1.668-11.59-.055-2.939-.333-6.942-1.278-11.59-.778-3.89-1.723-8.425-4.53-13.8-3.502-6.69-7.865-10.75-9.56-12.234C35.518 2.1 34.155 1.12 33.155.42c-4.058 2.603-7.56 4.227-9.95 5.207-4.446 1.847-6.53 2.127-10.032 4.45z" transform="translate(115 38) translate(14.73 94.9)"/>
                <path fill="#161616" d="M.834 26.734c.861-3.303 3.251-6.382 5.308-9.07 2.168-2.8 4.613-5.347 7.531-7.39.445-.308.028-1.036-.417-.728-3.001 2.1-5.53 4.703-7.753 7.586-2.14 2.772-4.558 5.907-5.447 9.35-.14.56.667.756.778.252z" transform="translate(115 38) translate(14.73 94.9)"/>
                <path fill="#161616" d="M.222 27.014c5.725 10.078 12.506 19.54 20.205 28.19.36.392.944-.195.583-.587-7.642-8.595-14.368-18-20.065-28.023-.278-.475-1-.056-.723.42zM23.734 6.019c3.112-2.212 6.53-3.863 10.171-4.927.528-.14.306-.952-.222-.812-3.724 1.092-7.198 2.771-10.366 5.01-.445.309-.028 1.037.417.729z" transform="translate(115 38) translate(14.73 94.9)"/>
                <path fill="#161616" d="M33.21 1.316c13.285 9.322 18.982 25.67 18.343 41.487-.028.532.806.532.833 0C53.053 26.65 47.162 10.078 33.627.588c-.417-.308-.833.42-.417.728zM18.62 53.553c1.445 2.995 1.612 6.718 1.918 9.966.333 3.303.444 6.634.444 9.966 0 .532.834.532.834 0 .028-3.696-.139-7.39-.556-11.058-.333-3.107-.556-6.467-1.917-9.322-.25-.476-.945-.056-.723.448z" transform="translate(115 38) translate(14.73 94.9)"/>
                <path fill="#161616" d="M21.51 73.653c4.17 5.15 11.284 6.606 17.481 5.01 3.446-.895 6.642-2.603 9.505-4.73 2.862-2.128 5.586-4.591 7.198-7.839.25-.476-.473-.896-.723-.42-1.556 3.108-4.169 5.487-6.92 7.53-2.668 1.988-5.642 3.612-8.865 4.536-6.059 1.707-13.034.392-17.12-4.675-.306-.42-.89.168-.556.588z" transform="translate(115 38) translate(14.73 94.9)"/>
                <path fill="#161616" d="M51.858 41.543c1.362 8.203 2.696 16.405 3.169 24.691.027.532.861.532.833 0-.5-8.37-1.834-16.656-3.196-24.915-.083-.532-.889-.308-.806.224z" transform="translate(115 38) translate(14.73 94.9)"/>
                <path fill="#3F3F3F" d="M24.79 4.899c3.085 3.667 7.309 9.378 10.838 17.104 5.17 11.31 6.198 21.08 6.976 29.394.611 6.327.945 15.145-.278 25.67 2.362-1.035 5.697-2.826 8.92-5.934 1.78-1.735 3.114-3.471 4.114-4.983-.917-7.81-1.834-15.649-2.751-23.459.166-6.439-.834-11.645-1.779-15.173-2.918-10.917-8.532-17.944-10.422-20.156-2.584-3.05-5.113-5.29-6.975-6.774-2.89 1.456-5.753 2.883-8.643 4.311z" opacity=".13" transform="translate(115 38) translate(14.73 94.9)"/>
                <path fill="#3F3F3F" d="M45.494 14.697c-.5.14.667 4.703 1.779 11.45 0 0 1.695 10.245 2.056 20.155.25 6.551-.083 16.125-3.001 28.023 1.334-.672 2.974-1.652 4.669-3.024 2.056-1.68 3.53-3.443 4.53-4.843-.362-11.281-1.306-17.132-2.196-20.436-.166-.643-.611-2.155-.972-4.283-.667-3.975-.334-5.683-.695-8.986-.278-2.631-.806-4.367-1.779-7.586-1.473-4.843-3.835-10.638-4.39-10.47z" opacity=".14" transform="translate(115 38) translate(14.73 94.9)"/>
            </g>
            <g>
                <path fill="#73539C" d="M27.513 6.579c-1.834 1.035-4.168 2.603-6.42 4.983-4.668 5.01-6.17 10.61-6.697 13.38-.417-.055-1.556-.14-2.474.589-1.361 1.063-1.39 3.163-.861 4.395.194.448.472.812 1.056 1.54.695.867 1.14 1.4 1.862 1.707.306.14 1 .336 2 .112.307.924.807 2.212 1.557 3.695.973 1.904 2.446 4.731 5.392 7.195.861.728 2.195 1.68 4.002 2.547.667.868 1.89 2.688 2.028 5.151.278 4.34-2.862 7.95-5.836 9.546-5.169 2.772-10.783 0-12.84-1.036-1.11-.56-6.697-3.47-9.031-9.854-2.835-7.698.861-15.396 3.057-19.987 2.223-4.62 3.251-4.311 4.946-8.819 2.252-5.962 1.057-8.062 3.641-12.625 1-1.792 3.03-5.375 7.281-7.054 3.641-1.428 7.004-.7 8.449-.28C29.82 1.036 31.932 0 34.6 0c6.336 0 10.394 6.047 11.367 7.502 2.89 4.284 1.361 5.6 3.946 11.618 3.252 7.586 6.42 7.139 9.338 14.249 1.417 3.471 3.78 9.21 1.167 14.697-2.696 5.655-8.838 7.306-9.616 7.502-1.417.364-5.224 1.316-9.032-.727-.361-.196-5.141-2.828-5.53-7.335-.14-1.652.333-3.191.444-3.527.584-1.82 1.584-2.996 1.89-3.387 1.195-1.484 2.64-4.228 3.64-9.686.473-.028 1.251-.14 2.03-.588 1.64-.952 2.417-2.884 2.334-4.563-.028-.392-.139-2.632-1.75-3.388-.668-.308-1.363-.224-1.752-.14C37.907 16.964 32.71 11.786 27.513 6.58z" transform="translate(115 38) translate(0 52.35)"/>
                <path fill="#FFF" d="M27.513 6.55c-3.085 1.82-5.224 3.836-6.586 5.32-4.53 4.954-5.975 10.133-6.281 11.337-.195.756-.334 1.372-.39 1.82-.305-.112-1-.308-1.694 0-1.056.476-1.279 1.763-1.39 2.407-.278 1.484.278 2.66.5 3.108.306.644.806 1.68 2.001 2.211.973.448 1.89.28 2.28.196.388 1.008.944 2.408 1.806 4.003 1.306 2.52 2.529 4.843 4.89 6.915.918.812 2.419 1.931 4.586 2.8.445.7 1.056 1.79 1.39 3.219.278 1.12.333 2.071.306 2.799.722.364 2.084.924 3.78.896 3.25-.056 5.39-2.1 5.89-2.604-.527-1.595-1-3.555-1.194-5.822-.083-1.036-.111-2.016-.111-2.912.861-.924 1.917-2.24 2.779-4.003 1.528-3.051 1.779-5.879 1.806-7.53.39.056 1.168.14 2.001-.196 1.168-.476 1.696-1.512 2.001-2.1.084-.14 1.25-2.547.195-4.927-.25-.532-.667-1.512-1.5-1.596-.612-.056-1.113.42-1.307.616-1.14-1.371-3.28-3.919-6.28-7.418-2.586-3.052-4.225-4.955-6.977-6.915-1-.728-1.89-1.26-2.5-1.623z" transform="translate(115 38) translate(0 52.35)"/>
                <path fill="#000" d="M23.678 36.252c-.278.644 1.028 1.792 1.64 2.268 1.278.952 2.64 1.092 3.14 1.12.584.056 2.501.196 4.252-1.064.417-.308 1.584-1.12 2.029-2.631.306-1.092.222-2.604-.361-2.856-.445-.168-.862.392-1.807 1.064-1.667 1.148-3.39 1.428-4.863 1.652-2.501.391-3.752-.112-4.03.447z" transform="translate(115 38) translate(0 52.35)"/>
                <path fill="#161616" d="M14.868 29.786c1 4.199 2.613 8.314 5.28 11.73 2.363 3.05 5.865 5.99 9.95 5.598 3.78-.364 6.864-3.331 8.865-6.354 2.362-3.528 3.502-7.755 3.39-12.01-.027-.532-.86-.532-.833 0 .111 3.891-.89 7.698-2.918 11.002-1.918 3.107-5.086 6.382-8.949 6.55-4.085.168-7.448-3.191-9.616-6.326-2.167-3.136-3.501-6.747-4.39-10.442-.112-.504-.918-.28-.779.252z" transform="translate(115 38) translate(0 52.35)"/>
                <path fill="#161616" d="M26.68 46.722c1.167 1.792 1.75 3.751 1.75 5.907 0 .532.834.532.834 0 0-2.267-.64-4.423-1.862-6.327-.278-.476-1-.056-.722.42z" transform="translate(115 38) translate(0 52.35)"/>
                <path fill="#161616" d="M28.82 52.965c3.39 1.96 7.781 1.008 10.088-2.128.333-.42-.39-.84-.723-.42-2.056 2.772-6.003 3.556-8.949 1.82-.472-.252-.889.476-.417.728z" transform="translate(115 38) translate(0 52.35)"/>
                <path fill="#161616" d="M36.823 42.971c.028 2.548.417 5.067 1.223 7.502.167.504.973.28.806-.223-.75-2.38-1.167-4.787-1.195-7.279 0-.56-.834-.56-.834 0zM15.702 32.445c-.361.392-1.25.252-1.667.028-.334-.168-.64-.42-.89-.672-.556-.532-1-1.175-1.278-1.875-.556-1.316-.806-5.095 1.667-4.423.528.14.75-.672.223-.812-3.057-.812-3.53 3.275-2.752 5.319.612 1.651 3.419 5.067 5.308 3.023.334-.392-.25-.98-.611-.588zM43.632 22.647c.334-1.12 1.779 1.036 1.946 1.428.333.896.444 1.876.305 2.827-.222 1.904-1.723 3.724-3.807 3.192-.528-.14-.75.672-.222.812 3.362.867 5.169-2.66 4.863-5.543-.139-1.26-.64-2.884-1.834-3.556-.778-.42-1.779-.307-2.057.588-.167.56.64.756.806.252zM18.676 16.713c.917-1.764 2.529-2.912 4.474-3.192.528-.084.306-.896-.222-.812-2.14.308-3.974 1.652-4.975 3.584-.25.476.473.895.723.42zM31.515 12.401c2.335-.56 4.67.616 5.725 2.744.25.476.945.056.723-.42-1.223-2.492-4.002-3.78-6.67-3.135-.528.14-.306.951.222.811zM25.457 15.845c.528 2.967.667 6.018.361 9.042-.111.924-.556 2.24-.139 3.163.445 1.008 1.64 1.876 2.39 2.66.361.392.973-.196.584-.588-.5-.532-1-1.036-1.501-1.568-.778-.812-.862-1.064-.695-2.24.14-1.063.278-2.155.334-3.247.11-2.491-.084-4.983-.528-7.418-.084-.56-.89-.336-.806.196zM21.955 23.04c-.417-.673-.611-1.4-.556-2.184 0-.168.111-.896.25-.924.084 0 .223.98.25 1.092.056.364.084.755.084 1.12 0 .111-.028 1.035-.028.475-.028-.812.028-1.623.056-2.435-.278.028-.556.084-.806.112.139.868.222 1.735.222 2.631h.834v-.336c0-.532-.834-.532-.834 0v.336c0 .532.834.532.834 0 0-.952-.084-1.903-.25-2.855-.084-.476-.806-.336-.806.112-.028.896-.14 1.875-.028 2.771.055.42.25.812.722.896 1.39.28.973-2.463.862-3.135-.083-.532-.167-1.344-.667-1.652-.417-.252-.862 0-1.112.392-.694 1.176-.305 2.911.334 3.975.194.476.917.056.639-.392zM34.795 21.556c-.417-.672-.612-1.4-.556-2.184 0-.168.11-.896.25-.924.083 0 .222.98.25 1.092.056.364.083.756.083 1.12 0 .112-.027 1.035-.027.476-.028-.812.027-1.624.055-2.436-.278.028-.556.084-.806.112.14.868.223 1.736.223 2.632h.833v-.336c0-.532-.833-.532-.833 0v.336c0 .531.833.531.833 0 0-.952-.083-1.904-.25-2.856-.083-.476-.806-.336-.806.112-.028.896-.139 1.876-.028 2.772.056.42.25.811.723.895 1.39.28.973-2.463.862-3.135-.084-.532-.167-1.344-.667-1.652-.417-.252-.862 0-1.112.392-.695 1.176-.306 2.912.333 3.975.195.504.917.084.64-.391zM17.842 25.615c.528 0 .528-.84 0-.84s-.528.84 0 .84zM21.121 26.23h.111c.223 0 .417-.195.417-.42 0-.223-.194-.42-.417-.42h-.11c-.223 0-.418.197-.418.42 0 .225.167.42.417.42zM19.176 28.806c.528 0 .528-.84 0-.84s-.556.84 0 .84zM34.961 25.195h.111c.223 0 .417-.196.417-.42 0-.224-.194-.42-.417-.42h-.11c-.223 0-.418.196-.418.42 0 .224.167.42.417.42zM38.018 23.123c.528 0 .528-.84 0-.84s-.528.84 0 .84zM37.601 25.39h.112c.222 0 .416-.195.416-.42 0-.223-.194-.42-.416-.42H37.6c-.222 0-.416.197-.416.42.027.225.194.42.416.42zM24.373 36.896c-.445-.644-1.167-1.567-.862-2.407.362-.952 1.501-.812 2.251-.7.918.14 1.668.308 2.557.028.723-.224 1.362-.7 2.029-1.064 1.584-.896 3.446-.98 3.946 1.12 1.418 5.739-8.643 7.362-10.199 2.323-.167-.503-.973-.307-.806.224 1.918 6.187 13.812 3.892 11.728-2.967-.361-1.148-1.223-2.128-2.446-2.267-2-.196-3.307 1.82-5.224 1.96-1.418.111-3.14-.98-4.28.363-1.029 1.204-.195 2.743.556 3.807.333.448 1.056.028.75-.42z" transform="translate(115 38) translate(0 52.35)"/>
                <path fill="#161616" d="M22.761 35.3c.611 1.708 3.668 1.176 5.002.98 2.557-.391 4.892-1.511 6.865-3.163.417-.336-.167-.952-.584-.588-1.445 1.232-3.112 2.128-4.947 2.632-.806.224-5.058 1.175-5.502-.056-.223-.532-1.029-.308-.834.196zM27.708 47.59c3.251.84 7.587-1.232 9.421-3.947.306-.448-.417-.868-.723-.42-1.611 2.38-5.641 4.283-8.476 3.555-.528-.14-.75.672-.222.812z" transform="translate(115 38) translate(0 52.35)"/>
                <path fill="#161616" d="M28.014 47.842c2.89 1.82 7.642-.756 9.032-3.527.25-.476-.473-.896-.723-.42-1.167 2.351-5.42 4.787-7.893 3.247-.472-.308-.889.42-.416.7z" transform="translate(115 38) translate(0 52.35)"/>
                <path fill="#3F3F3F" d="M39.547 18.168c.194 1.008.445 2.604.611 4.535.39 5.151 1.056 13.773-4.113 19.512-1.111 1.232-3.474 3.415-7.837 4.647 1.39-.056 3.085-.224 4.92-.7.916-.224 1.75-.504 2.5-.811.111 2.491.195 4.983.306 7.474.945-.616 1.862-1.204 2.807-1.82-1.278-2.855-1.278-5.067-1.112-6.466.25-1.96.973-3.556 1.696-5.151.639-1.4 1.306-2.52 1.834-3.304.055.588.194 1.204.583 1.792 1.696 2.548 7.004 2.8 10.339.616 3.084-2.016 4.585-6.103 3.807-10.302.528.448 1.084.98 1.612 1.624.417.504 1.5 1.96 3.001 7.082.473 1.596.695 2.408.834 3.22.167 1.12.473 3.247-.111 5.654-1 4.144-3.974 6.523-4.863 7.195-.64.476-2.585 1.904-5.503 2.575-1.39.308-5.558 1.316-9.477-.98-1.473-.867-2.279-1.511-2.723-2.295-.473-.868-.529-1.68-.584-2.295-.25-3.836-.361-5.767-.111-7.083.75-3.807 2.445-4.2 3.39-8.538.334-1.568.417-2.884.445-3.723.361.056.917.112 1.584-.056 1.39-.364 2.084-1.512 2.334-1.932 1.001-1.596 1.446-4.451-.11-5.767-.223-.196-1.001-.784-2.502-.672-1.14-1.343-2.334-2.687-3.557-4.03z" opacity=".2" transform="translate(115 38) translate(0 52.35)"/>
                <path fill="#3F3F3F" d="M26.374 27.238c1.417.42 2.862.868 4.28 1.288-.362.336-.723.644-1.112.98-.361.308-.695.56-1.056.84-.445-.336-1.084-.924-1.584-1.82-.278-.476-.445-.924-.528-1.288z" opacity=".13" transform="translate(115 38) translate(0 52.35)"/>
                <path fill="#3F3F3F" d="M4.085 30.738c-3.029 10.777-.778 19.484 3.752 21.387 3.557 1.484 9.977-.616 11.172-4.283.167-.476.334-1.316-.306-3.891-.555-2.268-1.695-5.683-4.252-9.574-.444-.28-1.028-.728-1.584-1.4-.972-1.204-1.25-2.491-1.334-3.107.806.84 1.974 1.903 2.724 1.567.722-.335 1.167-1.343.917-2.351.25 1.288.64 3.051 1.362 5.095.945 2.715 1.89 5.347 4.085 7.838 1 1.148 2.974 3.024 6.309 4.367.555.7 1.584 2.212 1.917 4.423.056.336.25 1.876-.25 3.808-.111.448-.778 2.883-2.974 4.983-2.556 2.463-5.613 2.911-6.614 3.05-7.531 1.009-13.367-5.626-14.396-6.774-1.028-1.175-2.723-3.135-3.696-6.158-1.556-4.815-.361-9.154.5-12.318.806-2.967 1.89-5.207 2.668-6.662z" opacity=".16" transform="translate(115 38) translate(0 52.35)"/>
            </g>
        </g>
    </g>
</svg>
